<svg version="1.1" id="Layer_1" xmlns="http://www.w3.org/2000/svg" xmlns:xlink="http://www.w3.org/1999/xlink" x="0px" y="0px"
	 width="100%" viewBox="0 0 1871 1604" enable-background="new 0 0 1871 1604" xml:space="preserve">
<path fill="#141419" opacity="1.000000" stroke="none" 
	d="
M1.000000,605.000000 
	C1.000000,403.333344 1.000000,202.166718 1.000000,1.000054 
	C624.666565,1.000036 1248.333130,1.000036 1871.999756,1.000018 
	C1871.999878,535.666504 1871.999878,1070.333008 1872.000000,1604.999634 
	C1248.333618,1604.999756 624.667114,1604.999756 1.000355,1604.999878 
	C1.000000,1271.833374 1.000000,938.666687 1.000000,605.000000 
M1254.499756,936.605347 
	C1414.151123,936.605347 1573.802368,936.625000 1733.453735,936.542114 
	C1740.752197,936.538330 1748.102539,936.009827 1755.340210,935.054932 
	C1832.717651,924.846191 1884.851196,848.398865 1866.540894,772.160645 
	C1851.889282,711.156189 1798.529907,669.399353 1735.143188,669.398499 
	C1202.692749,669.391724 670.242432,669.382263 137.792084,669.500061 
	C128.859161,669.502014 119.819176,670.473938 111.010849,672.025024 
	C39.010826,684.703613 -9.970695,758.098083 5.573130,829.689331 
	C19.436735,893.541748 72.791145,936.601440 138.103561,936.602478 
	C509.902252,936.608337 881.700928,936.605347 1254.499756,936.605347 
M339.499969,269.885223 
	C805.442261,269.885193 1271.384644,269.888947 1737.326904,269.841156 
	C1742.972534,269.840607 1748.663574,269.516846 1754.257080,268.771240 
	C1828.111084,258.926331 1879.704956,190.464661 1868.778442,116.936127 
	C1859.016113,51.240601 1803.104370,2.999790 1736.723633,2.999757 
	C1422.428955,2.999599 1108.134155,2.999685 793.839417,2.999687 
	C573.866394,2.999688 353.893311,2.885140 133.920547,3.112258 
	C97.181282,3.150191 65.588127,17.209326 40.332760,43.718983 
	C9.387711,76.200897 -1.983230,115.220375 4.941840,159.571091 
	C14.538630,221.032501 71.390488,269.852997 133.525116,269.878723 
	C201.850037,269.907043 270.174988,269.885193 339.499969,269.885223 
M1527.500000,1336.114624 
	C1063.223633,1336.114624 598.947144,1336.102539 134.670776,1336.215576 
	C126.735107,1336.217529 118.664650,1337.067139 110.885445,1338.646240 
	C41.355976,1352.760254 -3.688074,1414.549072 3.865069,1485.091064 
	C10.980473,1551.544678 68.327545,1602.999512 135.281235,1602.999756 
	C446.909821,1603.000488 758.538391,1603.000244 1070.166992,1603.000244 
	C1293.139771,1603.000244 1516.112671,1603.112915 1739.085205,1602.888062 
	C1775.824585,1602.850952 1807.415405,1588.779663 1832.666138,1562.277954 
	C1863.609619,1529.801636 1874.985474,1490.780884 1868.058838,1446.428345 
	C1858.460327,1384.967529 1801.611206,1336.146606 1739.474243,1336.121216 
	C1669.149536,1336.092529 1598.824707,1336.114624 1527.500000,1336.114624 
z"/>
<path fill="#FEAB00" opacity="1.000000" stroke="none" 
	d="
M1253.999756,936.605347 
	C881.700928,936.605347 509.902252,936.608337 138.103561,936.602478 
	C72.791145,936.601440 19.436735,893.541748 5.573130,829.689331 
	C-9.970695,758.098083 39.010826,684.703613 111.010849,672.025024 
	C119.819176,670.473938 128.859161,669.502014 137.792084,669.500061 
	C670.242432,669.382263 1202.692749,669.391724 1735.143188,669.398499 
	C1798.529907,669.399353 1851.889282,711.156189 1866.540894,772.160645 
	C1884.851196,848.398865 1832.717651,924.846191 1755.340210,935.054932 
	C1748.102539,936.009827 1740.752197,936.538330 1733.453735,936.542114 
	C1573.802368,936.625000 1414.151123,936.605347 1253.999756,936.605347 
z"/>
<path fill="#FFAC00" opacity="1.000000" stroke="none" 
	d="
M338.999939,269.885223 
	C270.174988,269.885193 201.850037,269.907043 133.525116,269.878723 
	C71.390488,269.852997 14.538630,221.032501 4.941840,159.571091 
	C-1.983230,115.220375 9.387711,76.200897 40.332760,43.718983 
	C65.588127,17.209326 97.181282,3.150191 133.920547,3.112258 
	C353.893311,2.885140 573.866394,2.999688 793.839417,2.999687 
	C1108.134155,2.999685 1422.428955,2.999599 1736.723633,2.999757 
	C1803.104370,2.999790 1859.016113,51.240601 1868.778442,116.936127 
	C1879.704956,190.464661 1828.111084,258.926331 1754.257080,268.771240 
	C1748.663574,269.516846 1742.972534,269.840607 1737.326904,269.841156 
	C1271.384644,269.888947 805.442261,269.885193 338.999939,269.885223 
z"/>
<path fill="#FFAC00" opacity="1.000000" stroke="none" 
	d="
M1528.000000,1336.114624 
	C1598.824707,1336.114624 1669.149536,1336.092529 1739.474243,1336.121216 
	C1801.611206,1336.146606 1858.460327,1384.967529 1868.058838,1446.428345 
	C1874.985474,1490.780884 1863.609619,1529.801636 1832.666138,1562.277954 
	C1807.415405,1588.779663 1775.824585,1602.850952 1739.085205,1602.888062 
	C1516.112671,1603.112915 1293.139771,1603.000244 1070.166992,1603.000244 
	C758.538391,1603.000244 446.909821,1603.000488 135.281235,1602.999756 
	C68.327545,1602.999512 10.980473,1551.544678 3.865069,1485.091064 
	C-3.688074,1414.549072 41.355976,1352.760254 110.885445,1338.646240 
	C118.664650,1337.067139 126.735107,1336.217529 134.670776,1336.215576 
	C598.947144,1336.102539 1063.223633,1336.114624 1528.000000,1336.114624 
z"/>
</svg>